<svg width="72" height="72" viewBox="0 0 72 72" fill="none" xmlns="http://www.w3.org/2000/svg">
<rect width="72" height="72" rx="2" fill="white" fill-opacity="0.2"/>
<path d="M45.491 20.0552L41.6012 22.0001L45.5316 23.9653C46.6153 24.5072 47.4941 25.3859 48.036 26.4697L50.0012 30.4001L51.9664 26.4697C52.5082 25.3859 53.387 24.5072 54.4708 23.9653L58.4012 22.0001L54.4309 20.015C53.3718 19.4854 52.5077 18.6337 51.963 17.5822L49.9 13.6001L48.0313 17.4776C47.4931 18.5943 46.5997 19.5008 45.491 20.0552Z" fill="white" fill-opacity="0.4"/>
<path fill-rule="evenodd" clip-rule="evenodd" d="M23.1316 34.0349C24.2153 33.493 25.0941 32.6143 25.636 31.5305L30.4012 22.0001H33.2012L37.9664 31.5305C38.5082 32.6143 39.387 33.493 40.4708 34.0349L50.0012 38.8001V41.6001L40.4708 46.3653C39.387 46.9072 38.5082 47.7859 37.9664 48.8697L33.2012 58.4001H30.4012L25.636 48.8697C25.0941 47.7859 24.2153 46.9072 23.1316 46.3653L13.6012 41.6001V38.8001L23.1316 34.0349ZM30.6448 34.0349L31.8012 31.7221L32.9576 34.0349C34.0413 36.2024 35.7989 37.9599 37.9664 39.0437L40.2792 40.2001L37.9664 41.3565C35.7989 42.4403 34.0413 44.1978 32.9576 46.3653L31.8012 48.6781L30.6448 46.3653C29.561 44.1978 27.8035 42.4403 25.636 41.3565L23.3231 40.2001L25.636 39.0437C27.8035 37.9599 29.561 36.2024 30.6448 34.0349Z" fill="white" fill-opacity="0.4"/>
</svg>
